#!OML:ASF F:\VICON\USERDATA\INSTALL\rory3\rory3.ASF
:FULLY-SPECIFIED
:DEGREES
1168
root 1.15567 15.3491 -5.20642 -6.78745 -2.05983 2.86309
lowerback -7.00678 11.6603 8.99194
upperback -2.77534 15.1593 -6.10683
thorax 4.87847 7.75114 -9.22209
lowerneck 3.98344 -8.19097 -14.2653
upperneck 49.5321 -2.93443 -15.2183
head 19.0048 -5.36291 -5.40415
rclavicle -1.0138e-013 6.36111e-015
rhumerus 66.8673 -4.17309 -73.1259
rradius 146.893
rwrist -64.5128
rhand 0.88164 -39.4768
rfingers 7.12502
rthumb 26.4346 -67.6535
lclavicle -1.0138e-013 6.36111e-015
lhumerus -58.3741 -12.5916 81.0389
lradius 34.31
lwrist 20.8001
lhand -10.8829 -25.7418
lfingers 7.12502
lthumb 15.1333 3.68495
rfemur -13.9823 -33.4127 18.0643
rtibia 66.7872
rfoot -47.9344 -37.8163
rtoes 8.61018
lfemur -34.4658 -19.9758 -5.06853
ltibia 23.8487
lfoot 8.71042 -6.60278
ltoes -15.0557
1169
root 1.15525 15.3469 -5.20456 -6.79722 -2.12919 2.81525
lowerback -7.05351 11.6742 9.07611
upperback -2.76055 15.168 -6.08757
thorax 4.93779 7.75872 -9.23156
lowerneck 4.01919 -8.15335 -14.2543
upperneck 49.4559 -2.89171 -15.2306
head 18.943 -5.34178 -5.38954
rclavicle 1.59823e-013 -7.95139e-015
rhumerus 66.9467 -4.14466 -73.1901
rradius 146.847
rwrist -64.6288
rhand 0.972502 -39.3627
rfingers 7.12502
rthumb 26.5215 -67.5262
lclavicle 1.59823e-013 -7.95139e-015
lhumerus -58.345 -12.5307 80.9873
lradius 34.2958
lwrist 20.7868
lhand -11.4817 -25.9535
lfingers 7.12502
lthumb 14.5564 3.51573
rfemur -13.9952 -33.3343 18.1532
rtibia 66.779
rfoot -48.0282 -37.8817
rtoes 8.7934
lfemur -34.4643 -19.9551 -4.98836
ltibia 23.887
lfoot 8.7102 -6.53122
ltoes -14.9022
1170
root 1.15398 15.3478 -5.20367 -6.81203 -2.15858 2.91858
lowerback -7.05154 11.6913 8.96563
upperback -2.77751 15.1988 -6.10797
thorax 4.90371 7.77064 -9.19145
lowerneck 4.08537 -8.13331 -14.2449
upperneck 49.3911 -2.88018 -15.2413
head 18.8797 -5.3333 -5.37738
rclavicle -7.83212e-014 -5.725e-014
rhumerus 66.9434 -4.14315 -73.1753
rradius 146.802
rwrist -64.6534
rhand 0.959388 -39.3571
rfingers 7.12502
rthumb 26.509 -67.5226
lclavicle -7.83212e-014 -5.725e-014
lhumerus -58.4176 -12.599 81.0332
lradius 34.3472
lwrist 20.9089
lhand -11.7835 -26.1433
lfingers 7.12502
lthumb 14.2656 3.34672
rfemur -13.9771 -33.3174 18.0282
rtibia 66.7688
rfoot -47.9519 -37.8355
rtoes 8.61685
lfemur -34.4433 -20.0366 -5.06002
ltibia 23.8982
lfoot 8.68823 -6.40675
ltoes -15.2094
1171
root 1.1512 15.3504 -5.20472 -6.83479 -2.20162 2.91073
lowerback -7.03 11.6847 8.96525
upperback -2.76753 15.1901 -6.08196
thorax 4.89302 7.76556 -9.16924
lowerneck 4.07573 -8.12236 -14.2932
upperneck 49.3294 -2.87302 -15.2301
head 18.845 -5.33648 -5.3531
rclavicle 3.97569e-014 -2.54444e-014
rhumerus 67.0902 -4.17636 -73.2198
rradius 146.713
rwrist -64.7494
rhand 0.907984 -39.4204
rfingers 7.12502
rthumb 26.4598 -67.5932
lclavicle 3.97569e-014 -2.54444e-014
lhumerus -58.4672 -12.6326 81.092
lradius 34.4179
lwrist 20.9388
lhand -11.992 -25.7333
lfingers 7.12502
lthumb 14.0647 3.77077
rfemur -13.9447 -33.2931 18.0399
rtibia 66.7434
rfoot -47.9676 -37.7589
rtoes 8.55887
lfemur -34.3957 -20.1129 -5.01085
ltibia 23.8861
lfoot 8.67425 -6.30593
ltoes -15.3851
